<svg xmlns="http://www.w3.org/2000/svg" fill="none" viewBox="0 0 10256 10044">
    <path fill="#1293D8" d="m10254.9 3743.87.2-3743.8055469L6185.99 4069.14l-.16 3743.83 4069.07-4069.1ZM3950.51 10035 5662 8324H2239l1711.51 1711Z"/>
    <path fill="#1293D8" fill-opacity=".75" d="M4390 10044h3520V6524l-3520 3520Z"/>
    <path fill="#1293D8" d="M2239 8013h3640V4373L2239 8013Z"/>
    <path fill="#1293D8" fill-opacity=".75" d="m.00031799 6524-.00030773 3520H3520L.00031799 6524ZM3950.52 5867 7693 2125H208l3742.52 3742ZM1660 4002.01.00031454 2342 .0000243 5662 1660 4002.01Z"/>
    <path fill="#1293D8" d="M3740.16 6077.98 1875.33 4213 2.00081 6086.49 1866.83 7951.47l1873.33-1873.49Z"/>
</svg>